<?xml version="1.0"?>
<svg width="14" height="19" xmlns="http://www.w3.org/2000/svg" xmlns:svg="http://www.w3.org/2000/svg">
 <g class="layer">
  <title>Layer 1</title>
  <path d="m11.77,16.78l-4.29,-3.29c-0.41,-0.31 -0.97,-0.31 -1.38,0l-4.33,3.29c-0.32,0.26 -0.75,0.32 -1.12,0.15c-0.37,-0.16 -0.62,-0.51 -0.65,-0.92l0,-14.06c0.04,-0.82 0.4,-1.59 1.02,-2.15c0.61,-0.55 1.42,-0.84 2.24,-0.8l7,0c0.83,-0.03 1.64,0.26 2.25,0.83c0.61,0.56 0.96,1.34 0.99,2.17l0,14.01c-0.04,0.39 -0.28,0.73 -0.64,0.89c-0.36,0.16 -0.77,0.12 -1.09,-0.12z" fill="#7b61ff" id="svg_1"/>
 </g>
</svg>